<svg xmlns="http://www.w3.org/2000/svg" viewBox="0 0 333.96 99.21"><defs><style>.cls-1{fill:#42beef;}.cls-1,.cls-2,.cls-3{fill-rule:evenodd;}.cls-2,.cls-4{fill:#d00036;}.cls-3{fill:#fff;}</style></defs><g id="Vrstva_2" data-name="Vrstva 2"><g id="Vrstva_1-2" data-name="Vrstva 1"><path class="cls-1" d="M0,24.75A24.75,24.75,0,1,1,24.75,49.49,24.75,24.75,0,0,1,0,24.75Z"/><path class="cls-2" d="M24.75,16.24a4.9,4.9,0,1,1,4.91-4.88,4.88,4.88,0,0,1-4.91,4.88Z"/><path class="cls-2" d="M0,74.46A24.75,24.75,0,1,1,24.76,99.21,24.75,24.75,0,0,1,0,74.46Z"/><path class="cls-3" d="M39.35,13.3s-10.09,6.34-14.6,21c-4.51-14.66-14.59-21-14.59-21h0s10.89,9.34,10.89,35.79S9.38,82.19,9.38,82.19s10.7-4.77,15.37-18.94c4.67,14.17,15.38,18.94,15.38,18.94s-11.68-6.63-11.68-33.1S39.35,13.3,39.35,13.3Z"/><path class="cls-4" d="M92.1,12.68,61.6,84.74H77.65l6.42-17.16h31.32L122,84.74h16.86L108.16,12.68ZM99.53,27l10.94,27.7H89Zm70.55,27.7h20.27v17H173.29q-9.22,0-13.15-5.42t-3.91-17q0-12.44,4-18.31t13.1-5.88h32.62V12.68H173.29q-17.35,0-25.64,9.13T139.37,50q0,19.58,11,28.4a25.61,25.61,0,0,0,5.42,3.46,28,28,0,0,0,5.47,1.91,32.18,32.18,0,0,0,5.72.81q3,.15,6.27.15h32.62V42H170.08Zm78-29.51h24.89V12.68H247.75q-17.35,0-25.64,9.13T213.83,50q0,19.58,11,28.4a26.92,26.92,0,0,0,5.22,3.37,26.43,26.43,0,0,0,5.37,1.9,35.24,35.24,0,0,0,5.67.86q2.91.19,6.22.2h25.59V72.19H248.05a27.55,27.55,0,0,1-7.72-1A12.4,12.4,0,0,1,235,68.18a12.7,12.7,0,0,1-3.11-5.47,28.85,28.85,0,0,1-1-8.18h42.05V42H231q.91-16.75,17.06-16.76m66.74,59.52H334V72.79H316.1a32.05,32.05,0,0,1-8.18-.9,11.11,11.11,0,0,1-5.77-3.81A9.5,9.5,0,0,1,300,62.76a73.7,73.7,0,0,1-.35-7.73V12.68H284.48V55.53a53.78,53.78,0,0,0,1.21,12.25A20.29,20.29,0,0,0,291,77.21a21.16,21.16,0,0,0,5,4.07,24.39,24.39,0,0,0,5.43,2.25,29.35,29.35,0,0,0,6.17,1q3.3.19,7.22.2"/></g></g></svg>